<svg width="1080" height="1080" viewBox="0 0 1080 1080" fill="none" xmlns="http://www.w3.org/2000/svg">
<path d="M506.584 357.244C537.057 352.896 573.486 359.14 610.61 388.787L611.328 389.362V656.197L610.728 656.762C597.519 669.213 573.141 684.071 542.744 688.408C512.271 692.756 475.842 686.512 438.718 656.865L438 656.291V389.457L438.6 388.891C451.809 376.44 476.187 361.581 506.584 357.244ZM607.504 391.208C571.47 362.721 536.378 356.855 507.124 361.029C478.056 365.176 454.665 379.254 441.823 391.117V654.443C477.858 682.93 512.95 688.797 542.204 684.623C571.272 680.476 594.663 666.398 607.504 654.534V391.208Z" fill="#6E4F2A"/>
<path d="M532.309 474.023C532.309 470.087 532.649 465.721 533.972 461.886C535.308 458.017 537.705 454.537 541.879 452.718C545.68 451.062 549.68 450.599 552.701 450.676V445.084H496.624V450.676C499.645 450.599 503.645 451.062 507.446 452.718C511.62 454.537 514.017 458.017 515.353 461.886C516.676 465.721 517.016 470.087 517.016 474.023V582.807C517.016 586.523 516.924 590.908 514.787 594.675C512.385 598.908 507.802 603.213 500.365 602.481H496.624V606.304H552.701V602.481H548.96C541.523 603.213 536.94 598.908 534.538 594.675C532.401 590.908 532.309 586.523 532.309 582.807V474.023ZM536.133 582.807C536.133 586.614 536.289 590.013 537.864 592.788C539.81 596.217 543.18 599.246 548.677 598.667L548.777 598.657H556.524V610.128H492.801V598.657H500.548L500.648 598.667C506.145 599.246 509.515 596.217 511.461 592.788C513.036 590.013 513.192 586.614 513.192 582.807V474.023C513.192 470.244 512.857 466.374 511.739 463.133C510.632 459.926 508.818 457.487 505.919 456.223C501.876 454.461 497.48 454.298 494.96 454.626L492.801 454.908V441.26H556.524V454.908L554.365 454.626C551.845 454.298 547.449 454.461 543.406 456.223C540.507 457.487 538.693 459.926 537.586 463.133C536.468 466.374 536.133 470.244 536.133 474.023V582.807Z" fill="#6E4F2A"/>
<path d="M574.671 567.16C576.2 566.615 577.672 567.036 578.772 568.218C579.763 569.284 580.341 570.839 580.656 572.467C581.293 575.767 581.034 580.334 579.718 585.314C577.795 592.591 573.82 603.999 568.894 614.508C566.43 619.766 563.705 624.846 560.855 629.091C560.567 629.521 560.274 629.941 559.981 630.356C558.074 643.838 556.489 657.573 555.343 670.316C553.949 685.803 553.573 695.929 553.766 705.001C553.78 705.669 554.615 705.743 554.735 705.088C558.06 686.947 562.532 668.659 568.539 648.125C572.027 636.202 575.903 624.975 580.095 615.673C584.264 606.423 589.168 595.46 594.139 591.081C596.724 588.804 599.726 588.97 602.309 590.247C604.838 591.497 606.622 595.503 607.448 598.841C609.272 606.205 610.911 619.63 611.219 636.966C611.425 648.545 611.834 656.514 612.357 661.721C612.502 663.164 614.275 663.298 614.713 661.916C617.474 653.201 623.078 635.904 629.31 620.55C633.299 610.72 637.748 599.817 641.903 593.887C643.953 590.962 645.918 588.467 648.188 587.42C649.368 586.876 651.255 587.082 652.541 587.42C653.827 587.758 655.427 589.767 656.358 590.953C657.811 592.805 658.026 595.699 658.872 598.841C659.732 602.035 660.29 605.861 660.885 610.026C662.073 618.342 662.906 628.307 663.843 637.745C664.788 647.26 665.835 656.22 667.439 662.783C668.245 666.076 669.151 668.59 670.153 670.238C671.145 671.868 672.027 672.345 672.81 672.346C674.914 672.346 677.553 671.215 680.581 669.044C683.568 666.902 686.729 663.897 689.829 660.493C695.403 654.37 700.633 647.121 704.108 641.753C704.721 640.807 705.895 640.576 706.747 641.249C707.599 641.921 707.806 643.243 707.215 644.207C703.6 650.099 697.974 659.505 692.181 665.867C688.98 669.383 686.04 671.992 682.754 674.348C679.509 676.675 675.985 677.882 672.81 677.882C670.294 677.882 667.15 674.588 665.785 672.346C664.431 670.12 663.487 667.201 662.643 663.747C660.948 656.815 661.036 647.693 660.095 638.215C659.147 628.659 658.33 618.88 657.162 610.698C656.578 606.615 655.916 603.003 655.127 600.071C654.323 597.087 653.445 595.039 652.541 593.887C652.009 593.209 651.551 592.941 651.187 592.845C650.824 592.749 650.36 592.775 649.738 593.062C648.404 593.677 646.717 595.322 644.762 598.112C640.906 603.615 636.714 612.517 632.74 622.31C624.817 641.832 618.037 665.592 616.763 669.535C616.431 670.561 615.899 671.473 615.507 672.228C615.172 672.872 614.543 673.924 613.622 674.348C613.071 674.602 611.398 674.576 610.768 674.308C610.189 674.062 609.785 673.619 609.515 673.229C609 672.483 608.652 671.45 608.381 670.348C607.286 665.893 607.762 654.662 607.448 637.05C607.145 619.972 605.44 608.535 603.722 601.598C603.168 599.362 601.894 597.79 600.5 597.101C599.159 596.438 597.604 596.526 596.138 597.817C591.831 601.61 587.557 608.497 583.458 617.59C579.383 626.632 575.576 637.64 572.121 649.45C565.213 673.066 559.769 701.115 556.427 721.222C556.142 722.935 555.11 724.828 553.249 724.953C552.3 725.016 551.453 724.545 550.876 723.789C550.324 723.066 550.049 722.143 549.959 721.204C548.969 710.858 549.7 690.917 551.592 669.89C552.569 659.026 553.863 647.445 555.403 635.906C554.742 636.567 554.074 637.172 553.4 637.712C552.552 638.392 551.397 638.028 550.886 637.008C550.374 635.988 550.699 634.698 551.532 633.997C553.114 632.667 554.754 630.827 556.416 628.569C557.612 620.2 558.932 611.938 560.351 604.077C562.566 591.8 564.997 583.108 567.356 577.28C568.535 574.368 569.721 572.11 570.89 570.466C572.034 568.857 573.294 567.65 574.671 567.16ZM575.809 572.616C575.734 572.643 575.641 572.562 575.521 572.458C575.075 572.073 574.269 571.378 572.771 574.78C572.199 575.585 571.788 576.782 571.29 578.232C570.994 579.094 570.667 580.046 570.257 581.059C568.06 586.487 566.785 591.972 564.601 604.077C564.114 606.774 564.023 607.971 563.922 609.294C563.833 610.472 563.735 611.749 563.344 614.276C564.772 611.713 566.033 609.324 567.356 606.502C572.003 596.588 574.104 591.472 575.908 584.836C575.973 584.595 576.038 584.352 576.103 584.106C576.765 581.6 577.102 579.746 577.192 578.185C577.266 576.922 577.178 575.851 576.971 574.78C576.736 573.562 576.393 572.94 576.166 572.696C576.048 572.569 576.007 572.546 575.809 572.616Z" fill="#6E4F2A"/>
<path fill-rule="evenodd" clip-rule="evenodd" d="M575.521 572.458C575.641 572.562 575.734 572.643 575.809 572.616C576.007 572.546 576.048 572.569 576.166 572.696C576.393 572.94 576.736 573.562 576.971 574.78C577.178 575.851 577.266 576.922 577.192 578.185C577.046 576.659 576.277 575.852 574.657 576.112C570.257 576.819 565.229 596.372 565.229 606.502C568.742 600.841 573.604 591.642 575.908 584.836C574.104 591.472 572.003 596.588 567.356 606.502C566.033 609.324 564.772 611.713 563.344 614.276C563.735 611.749 563.833 610.472 563.922 609.294C564.023 607.971 564.114 606.774 564.601 604.077C566.785 591.972 568.06 586.487 570.257 581.059C570.667 580.046 570.994 579.094 571.29 578.232C571.788 576.782 572.199 575.585 572.771 574.78C574.269 571.378 575.075 572.073 575.521 572.458ZM575.908 584.836C575.973 584.595 576.038 584.352 576.103 584.106C576.765 581.6 577.102 579.746 577.192 578.185C577.344 579.762 576.832 582.107 575.908 584.836Z" fill="#6E4F2A"/>
<path d="M577.192 578.185C577.266 576.922 577.178 575.851 576.971 574.78C576.736 573.562 576.393 572.94 576.166 572.696C576.048 572.569 576.007 572.546 575.809 572.616C575.734 572.643 575.641 572.562 575.521 572.458C575.075 572.073 574.269 571.378 572.771 574.78C572.199 575.585 571.788 576.782 571.29 578.232C570.994 579.094 570.667 580.046 570.257 581.059C568.06 586.487 566.785 591.972 564.601 604.077C564.114 606.774 564.023 607.971 563.922 609.294C563.833 610.472 563.735 611.749 563.344 614.276C564.772 611.713 566.033 609.324 567.356 606.502C572.003 596.588 574.104 591.472 575.908 584.836M577.192 578.185C577.046 576.659 576.277 575.852 574.657 576.112C570.257 576.819 565.229 596.372 565.229 606.502C568.742 600.841 573.604 591.642 575.908 584.836M577.192 578.185C577.102 579.746 576.765 581.6 576.103 584.106C576.038 584.352 575.973 584.595 575.908 584.836M577.192 578.185C577.344 579.762 576.832 582.107 575.908 584.836M574.671 567.16C576.2 566.615 577.672 567.036 578.772 568.218C579.763 569.284 580.341 570.839 580.656 572.467C581.293 575.767 581.034 580.334 579.718 585.314C577.795 592.591 573.82 603.999 568.894 614.508C566.43 619.766 563.705 624.846 560.855 629.091C560.567 629.521 560.274 629.941 559.981 630.356C558.074 643.838 556.489 657.573 555.343 670.316C553.949 685.803 553.573 695.929 553.766 705.001C553.78 705.669 554.615 705.743 554.735 705.088C558.06 686.947 562.532 668.659 568.539 648.125C572.027 636.202 575.903 624.975 580.095 615.673C584.264 606.423 589.168 595.46 594.139 591.081C596.724 588.804 599.726 588.97 602.309 590.247C604.838 591.497 606.622 595.503 607.448 598.841C609.272 606.205 610.911 619.63 611.219 636.966C611.425 648.545 611.834 656.514 612.357 661.721C612.502 663.164 614.275 663.298 614.713 661.916C617.474 653.201 623.078 635.904 629.31 620.55C633.299 610.72 637.748 599.817 641.903 593.887C643.953 590.962 645.918 588.467 648.188 587.42C649.368 586.876 651.255 587.082 652.541 587.42C653.827 587.758 655.427 589.767 656.358 590.953C657.811 592.805 658.026 595.699 658.872 598.841C659.732 602.035 660.29 605.861 660.885 610.026C662.073 618.342 662.906 628.307 663.843 637.745C664.788 647.26 665.835 656.22 667.439 662.783C668.245 666.076 669.151 668.59 670.153 670.238C671.145 671.868 672.027 672.345 672.81 672.346C674.914 672.346 677.553 671.215 680.581 669.044C683.568 666.902 686.729 663.897 689.829 660.493C695.403 654.37 700.633 647.121 704.108 641.753C704.721 640.807 705.895 640.576 706.747 641.249C707.599 641.921 707.806 643.243 707.215 644.207C703.6 650.099 697.974 659.505 692.181 665.867C688.98 669.383 686.04 671.992 682.754 674.348C679.509 676.675 675.985 677.882 672.81 677.882C670.294 677.882 667.15 674.588 665.785 672.346C664.431 670.12 663.487 667.201 662.643 663.747C660.948 656.815 661.036 647.693 660.095 638.215C659.147 628.659 658.33 618.88 657.162 610.698C656.578 606.615 655.916 603.003 655.127 600.071C654.323 597.087 653.445 595.039 652.541 593.887C652.009 593.209 651.551 592.941 651.187 592.845C650.824 592.749 650.36 592.775 649.738 593.062C648.404 593.677 646.717 595.322 644.762 598.112C640.906 603.615 636.714 612.517 632.74 622.31C624.817 641.832 618.037 665.592 616.763 669.535C616.431 670.561 615.899 671.473 615.507 672.228C615.172 672.872 614.543 673.924 613.622 674.348C613.071 674.602 611.398 674.576 610.768 674.308C610.189 674.062 609.785 673.619 609.515 673.229C609 672.483 608.652 671.45 608.381 670.348C607.286 665.893 607.762 654.662 607.448 637.05C607.145 619.972 605.44 608.535 603.722 601.598C603.168 599.362 601.894 597.79 600.5 597.101C599.159 596.438 597.604 596.526 596.138 597.817C591.831 601.61 587.557 608.497 583.458 617.59C579.383 626.632 575.576 637.64 572.121 649.45C565.213 673.066 559.769 701.115 556.427 721.222C556.142 722.935 555.11 724.828 553.249 724.953C552.3 725.016 551.453 724.545 550.876 723.789C550.324 723.066 550.049 722.143 549.959 721.204C548.969 710.858 549.7 690.917 551.592 669.89C552.569 659.026 553.863 647.445 555.403 635.906C554.742 636.567 554.074 637.172 553.4 637.712C552.552 638.392 551.397 638.028 550.886 637.008C550.374 635.988 550.699 634.698 551.532 633.997C553.114 632.667 554.754 630.827 556.416 628.569C557.612 620.2 558.932 611.938 560.351 604.077C562.566 591.8 564.997 583.108 567.356 577.28C568.535 574.368 569.721 572.11 570.89 570.466C572.034 568.857 573.294 567.65 574.671 567.16Z" stroke="#6E4F2A" stroke-width="1.27447"/>
</svg>
